<svg xmlns="http://www.w3.org/2000/svg" xmlns:xlink="http://www.w3.org/1999/xlink" viewBox="0,0,256,256" width="100px" height="100px" fill-rule="nonzero"><g transform="translate(64,64) scale(0.5,0.5)"><g fill="#000000" fill-rule="nonzero" stroke="none" stroke-width="1" stroke-linecap="butt" stroke-linejoin="miter" stroke-miterlimit="10" stroke-dasharray="" stroke-dashoffset="0" font-family="none" font-weight="none" font-size="none" text-anchor="none" style="mix-blend-mode: normal"><g transform="scale(5.12,5.12)"><path d="M26.10547,2c-6.28125,0 -9.94922,2.22266 -11.89844,4.89063c-1.94922,2.66797 -2.20703,5.62891 -2.20703,7.10938c0,2.24219 0.71484,4.70313 2.34375,6.65625c1.62891,1.95703 4.21484,3.34375 7.65625,3.34375c0.13672,0 0.41016,-0.00781 0.58984,0c-0.11328,0.35938 -0.25781,0.6875 -0.25781,1.13672c0,1.28906 0.35938,2.23438 0.83984,3.05078c-3.10156,0.19531 -6.28906,0.83203 -8.93359,2.26563c-3.16406,1.71484 -5.58203,4.52734 -5.58203,8.30078c0,1.51953 0.61719,3.79688 2.59375,5.75781c1.97656,1.96094 5.28906,3.48828 10.44531,3.48828c11.73438,0 15.75,-7.41016 15.75,-11.91016c0,-4.09375 -2.25391,-6.62109 -4.30078,-8.35937c-1.02344,-0.87109 -2.00391,-1.58594 -2.66016,-2.22656c-0.66016,-0.64062 -0.93359,-1.10937 -0.93359,-1.59375c0,-0.63281 0.21875,-1.05859 0.68359,-1.60937c0.46484,-0.54687 1.18359,-1.14062 1.95703,-1.88281c1.54688,-1.48828 3.25,-3.71094 3.25,-7.52734c0,-2.70312 -0.91406,-4.62891 -2.01562,-5.89062h0.57422c0.26563,0 0.51953,-0.10547 0.70703,-0.29297l3,-3c0.28516,-0.28516 0.37109,-0.71484 0.21484,-1.08984c-0.15234,-0.375 -0.51562,-0.61719 -0.92187,-0.61719zM22.56641,6c4.78906,0 5.96094,7.10547 5.96094,9.03516c0,0.44922 0.31641,4.96484 -4.12109,4.96484c-3.36328,0 -6.20312,-4.22656 -6.20312,-8.75c0,-1.34375 0.64453,-5.25 4.36328,-5.25zM25.42578,29.90234c0.22656,0.01953 0.44531,0.04688 0.65234,0.09766c1.75781,1.3125 4.92188,3.39453 4.92188,6.90234c-0.00391,1.58594 -0.98437,4.92969 -5.90234,5.91406c-3.97656,0.80078 -10.09766,-0.81641 -10.06641,-5.78125c0.00781,-2.04297 1.14453,-5.76562 7.40234,-6.91016c0.00391,-0.00391 0.00781,-0.00391 0.00781,-0.00391c0.85938,-0.08984 1.71484,-0.12891 2.54688,-0.12109c0.15234,0 0.30469,-0.03125 0.4375,-0.09766z"></path></g></g><g fill="#000000" fill-rule="nonzero" stroke="none" stroke-width="1" stroke-linecap="butt" stroke-linejoin="miter" stroke-miterlimit="10" stroke-dasharray="" stroke-dashoffset="0" font-family="none" font-weight="none" font-size="none" text-anchor="none" style="mix-blend-mode: normal"><g><path d="M221.957,219.751v3.99h-28.27v-3.99c1.02667,-0.54667 2.08667,-1.01 3.18,-1.39c1.09333,-0.37333 2.28667,-0.73 3.58,-1.07v0v-37.48l-6.76,-0.82v-3.99c1.02667,-0.41333 2.30667,-0.82333 3.84,-1.23c1.54,-0.41333 3.16333,-0.77333 4.87,-1.08c1.70667,-0.30667 3.38,-0.58 5.02,-0.82c1.63333,-0.23333 3.06667,-0.42 4.3,-0.56v0h3.48v45.98c1.36667,0.34 2.59333,0.69667 3.68,1.07c1.09333,0.38 2.12,0.84333 3.08,1.39zM198.707,155.751v0c0,-2.39333 0.82,-4.27333 2.46,-5.64c1.64,-1.36 3.75667,-2.04 6.35,-2.04v0c2.59333,0 4.71,0.68 6.35,2.04c1.63333,1.36667 2.45,3.24667 2.45,5.64v0c0,2.32 -0.81667,4.16333 -2.45,5.53c-1.64,1.36 -3.75667,2.04 -6.35,2.04v0c-2.59333,0 -4.71,-0.68 -6.35,-2.04c-1.64,-1.36667 -2.46,-3.21 -2.46,-5.53zM257.387,146.741v0c2.8,0 5.30667,0.25333 7.52,0.76c2.22,0.51333 3.91,1.01 5.07,1.49v0c-0.2,2.25333 -0.64333,4.57333 -1.33,6.96c-0.68,2.39333 -1.29333,4.37333 -1.84,5.94v0h-3.48l-4.51,-9.73c-1.77333,0 -3.25667,0.19 -4.45,0.57c-1.2,0.37333 -2.15667,1.10667 -2.87,2.2c-0.72,1.09333 -1.25,2.64667 -1.59,4.66c-0.34,2.01333 -0.51,4.62333 -0.51,7.83v0v5.12h10.85v6.45h-10.85v38.3c3.54667,0.40667 6.82333,1.22667 9.83,2.46v0v3.99h-31.33v-3.99c2.11333,-1.23333 4.36333,-2.05333 6.75,-2.46v0v-38.3h-7.78v-3.99c2.39333,-1.50667 4.98667,-2.63333 7.78,-3.38v0v-3.59c0,-4.22667 0.6,-7.72333 1.8,-10.49c1.19333,-2.76667 2.81333,-4.95333 4.86,-6.56c2.04667,-1.6 4.45333,-2.70667 7.22,-3.32c2.76667,-0.61333 5.72,-0.92 8.86,-0.92zM308.887,213.091l1.95,2.05c-0.54667,1.16 -1.41667,2.33667 -2.61,3.53c-1.19333,1.19333 -2.66,2.25333 -4.4,3.18c-1.74667,0.92 -3.76333,1.67 -6.05,2.25c-2.28667,0.58 -4.76,0.87 -7.42,0.87v0c-4.23333,0 -7.98667,-0.63333 -11.26,-1.9c-3.28,-1.26 -6.01333,-3.06667 -8.2,-5.42c-2.18,-2.36 -3.83333,-5.17667 -4.96,-8.45c-1.12667,-3.28 -1.69,-6.96667 -1.69,-11.06v0c0,-8.74 2.28667,-15.39667 6.86,-19.97c4.57333,-4.57333 10.92333,-6.86 19.05,-6.86v0c3.48,0 6.73667,0.47667 9.77,1.43c3.04,0.96 5.56667,2.53333 7.58,4.72c2.01333,2.18 3.41333,5.04667 4.2,8.6c0.78667,3.54667 0.73667,7.88 -0.15,13v0h-31.44c0.06667,5.39333 1.45,9.69333 4.15,12.9c2.69333,3.21333 6.67,4.82 11.93,4.82v0c2.25333,0 4.59,-0.34333 7.01,-1.03c2.42667,-0.68 4.32,-1.56667 5.68,-2.66zM289.747,177.151v0c-1.36667,0 -2.58,0.23667 -3.64,0.71c-1.06,0.48 -1.98,1.35333 -2.76,2.62c-0.78667,1.26 -1.42,2.96667 -1.9,5.12c-0.48,2.14667 -0.82,4.86 -1.02,8.14v0h16.48c0.48,-5.32667 0.17333,-9.42333 -0.92,-12.29c-1.09333,-2.86667 -3.17333,-4.3 -6.24,-4.3zM363.367,178.991l-14.03,17.31l16.18,20.99c1.77333,0.54667 3.44667,1.36667 5.02,2.46v0v3.99h-26.11v-3.89c0.74667,-0.54667 1.51333,-1.04333 2.3,-1.49c0.78667,-0.44 1.59,-0.79667 2.41,-1.07v0l-9.73,-13.93l-9.42,13.93c0.95333,0.34 1.79,0.71667 2.51,1.13c0.71333,0.40667 1.41333,0.85 2.1,1.33v0v3.99h-19.36v-3.99c0.96,-0.54667 1.83,-1.02667 2.61,-1.44c0.78667,-0.40667 1.69333,-0.74667 2.72,-1.02v0l15.15,-18.84l-15.25,-19.46c-0.96,-0.34 -1.81333,-0.69667 -2.56,-1.07c-0.75333,-0.38 -1.43667,-0.84333 -2.05,-1.39v0v-3.99h25.7v3.89c-0.82,0.54667 -1.55333,1.04333 -2.2,1.49c-0.64667,0.44 -1.45,0.79667 -2.41,1.07v0l8.91,12.7l8.5,-12.7c-1.16,-0.34 -2.08,-0.71667 -2.76,-1.13c-0.68667,-0.40667 -1.30333,-0.85 -1.85,-1.33v0v-3.99h18.95v3.99c-0.68667,0.48 -1.44,0.92333 -2.26,1.33c-0.82,0.41333 -1.84333,0.79 -3.07,1.13z"></path></g></g></g></svg>